<?xml version="1.0" encoding="UTF-8"?><svg xmlns="http://www.w3.org/2000/svg" xmlns:xlink="http://www.w3.org/1999/xlink" height="275.5" preserveAspectRatio="xMidYMid meet" version="1.0" viewBox="-0.0 -0.0 418.8 275.5" width="418.8" zoomAndPan="magnify"><g><g id="change1_1"><path d="M2.831,119.59c15.315,3.2,30.634,6.395,46.067,8.958a180.621,180.621,0,0,1,54.078,18.228c7.573,3.967,15.768,7.512,22.807,12.386,7.2,4.988,13.462,11.181,20.178,16.778a147.9,147.9,0,0,0,30.944,19.829c11.449,5.464,23.565,8.4,35.227,13.4,9.538,4.084,18.833,9.146,29.028,11.429,9.013,2.019,17.4,6.613,26.408,8.147,10.184,1.735,19.749,4.871,30.217,5.382,3.913.192,7.827.155,11.743.195,3.524.036,6.339,1.106,9.8,1.637,7.884,1.209,16.032.981,23.667,3.568,13.167,4.461,22.24,16.323,33.644,24.292a63.545,63.545,0,0,0,8.838,5.168c5.189,2.5,10.861,4.3,16.608,4.018s11.582-2.906,14.729-7.738a2.4,2.4,0,0,0-2.455-.868c.974-.724.622-2.395-.354-3.117a6.1,6.1,0,0,0-3.485-.815,112.169,112.169,0,0,1-43.223-10.4c-6.818-3.169-12.471-8.726-18.378-13.385-4.7-3.706-9.9-6.6-14.625-10.315-7.59-5.962-16.55-9.46-25.244-13.659,2.611-1.371,5.671-.028,8.408-.115,2.794-.089,6.287.306,8.948-.689,2.334-.872,3.783-2.634,6.31-3.335,5.229-1.45,11.512.044,16-3.666l-8.253-7.975,8.76-.327c-5.308-4.641-11-9.469-17.939-10.642,3.652-1.071,7.541-.1,11.3.5s7.989.7,10.933-1.72l-15.034-1.338c1.363-1.545,3.673-1.641,5.7-1.982s4.367-1.5,4.434-3.563c.064-1.975-1.976-3.267-3.745-4.135s-7.163-2.411-7.908-4.4c-1.029-2.744,3.436-4.309,5.423-5.621a4.188,4.188,0,0,0,1.481-1.373,16.649,16.649,0,0,1,.644-1.549,3.45,3.45,0,0,1,1.412-1.02,45.788,45.788,0,0,0,14.794-11.715,3.717,3.717,0,0,0,1.065-2.118c.029-.805-.7-1.67-1.474-1.462A54.588,54.588,0,0,0,370.7,121.539c.864-4.453,1.132-9.239-.745-13.365a97.472,97.472,0,0,1-17.83,8.741,40.008,40.008,0,0,0-7.1,3.042c-3.371,2.056-5.884,5.227-8.518,8.173a93.2,93.2,0,0,1-8.711,8.546c-2.4,2.064-6.679,6.725-9.776,7.421-5.91,1.328-10.739-7.579-16.283-8.654q.418-1.755.836-3.51a34.756,34.756,0,0,0-11.238-.975,10.4,10.4,0,0,0,1.171-5.394l-6.327,2.162a11.316,11.316,0,0,0,1.45-7.287,1.652,1.652,0,0,0-.388-.981c-.575-.555-1.548-.1-2.07.509s-.96,1.392-1.733,1.589c-.242-1.436.321-2.868.573-4.3s.051-3.178-1.2-3.923a3.217,3.217,0,0,0-3.742.841,20.242,20.242,0,0,0-2.289,3.439,11.805,11.805,0,0,1-5.835,4.618c.945-.341,3.274-6.023,3.518-7.092.506-2.213.335-5.655-1.337-7.353a1.287,1.287,0,0,0-.819-.452,1.554,1.554,0,0,0-1.049.589,35.216,35.216,0,0,1-8.988,6.374,29.845,29.845,0,0,0,2.732-11.8,1.864,1.864,0,0,0-.564-1.677c-.749-.485-1.673.252-2.256.928l-6.685,7.743a39.3,39.3,0,0,0,.341-6.848,1.565,1.565,0,0,0-.164-.767,1.124,1.124,0,0,0-1.436-.275,4.276,4.276,0,0,0-1.181,1.075,5.408,5.408,0,0,1-4.568,2.03c.006-2.095-.312-4.2-.306-6.293a1.908,1.908,0,0,0-.435-1.5,1.444,1.444,0,0,0-1.068-.263c-2.391.2-3.7,3-5.923,3.9a7.464,7.464,0,0,0-.695-6.646c-1.645,2.053-2.485,4.625-3.8,6.9s-3.429,4.413-6.052,4.511a37.155,37.155,0,0,0,.491-9.406,1.27,1.27,0,0,0-.19-.688.89.89,0,0,0-1.211-.048,2.792,2.792,0,0,0-.736,1.114c-1,2.16-2.67,5.6-4.891,6.5-.986-3.541-.183-7.928-.235-11.618-.061-4.311-.594-8.751-2.705-12.507-1.022-.094-1.58,1.151-1.793,2.158-.946,4.484-1.341,9.26-3.821,13.111-.695-2.9-.1-5.926.264-8.885a56.031,56.031,0,0,0,.206-11.659c.011.237.046.922.183.728a.856.856,0,0,0,.035-.688c-.737-3.066-1.712-6.937-4.061-3.43-1.786,2.666-2.28,6.3-4.252,9.078q.135-6.984.269-13.968c.068-3.551.067-7.353-1.9-10.306a3.105,3.105,0,0,0-1.684-1.41c-.618,1.574-.126,3.4-.657,5.007s-1.961,2.7-2.915,4.085c-1.293,1.881-1.664,4.229-2,6.489q-.672,4.491-1.343,8.983c-2.785-12.5-.269-26.664-6.13-38.05a131.812,131.812,0,0,1-4.9,22.312c1.112-3.559.394-8.748.04-12.4-.175-1.8-.156-3.608-.2-5.414-.1-3.524.32-12.806-2.849-15.006-1.8,1.408-2.754,4.91-3.024,7.168-.322,2.7.445,5.457-.045,8.128-.428,2.337-1.782,4.4-2.418,6.687-.992,3.567-.205,7.533-1.661,10.936-.523-4.713-2.849-9.261-3.865-13.867-.777-3.522-2.142-6.859-3.023-10.344-.861-3.406-.671-6.879-1.57-10.34-.156-.6-.455-1.313-1.072-1.381-.875-.1-1.207,1.09-1.337,1.964-.4,2.649-1.876,5-2.716,7.54a29.6,29.6,0,0,0-1.061,13.545c-3.41-8.31-7.065-16.692-9.979-25.19-1.238-3.611-2.559-7.431-5.483-9.875a2.96,2.96,0,0,0-.409,1.882c.092,8.571,1.621,16.994,1.973,25.49-3.009-1.53-5.209-9.845-6.669-13l-7.293-15.771a5.232,5.232,0,0,0-2.287-2.862,56.074,56.074,0,0,0-1.428,17.117A162.891,162.891,0,0,0,114,1.565C113.428.806,112.7-.023,111.753,0c-1.891,3.15-1.127,7.157-.3,10.74q1.489,6.472,2.977,12.945C110.2,16.81,105.761,9.9,101.067,3.335a57.335,57.335,0,0,0,1.694,20.013c-4.519-5.195-5.508-13.395-11.4-16.939C90.259,14.3,95,24.058,98.421,30.967c4.026,8.143,6.557,16.73,10.389,24.953,4.581,9.83,12.614,17.527,19.128,26.189,9.207,12.245,15.444,26.542,24.818,38.658a183.911,183.911,0,0,0,14.4,15.9l19.963,20.379A121.053,121.053,0,0,0,203.814,171.7c2.921,2.073,11.92,6.035,12.172,9.7-8.79,1.283-18.687.018-27.6-.039-4.438-.029-8.884-.058-13.3-.5a71.463,71.463,0,0,1-39.557-17.174,121.524,121.524,0,0,1-10.561-9.965c-7.639-8.388-14.958-17.012-23.048-24.986a31.141,31.141,0,0,0-7.515-5.243c-5.823-3.046-12.344-5.478-18.84-4.515-7.238,1.074-13.634,5.4-21.034,5.648a43.245,43.245,0,0,1-9.84-1.239q-11.053-2.208-22.23-3.719-5.586-.754-11.192-1.334c-1.937-.2-6.428-1.2-7.591,1.112-.845-.3-1,.485-1.841.18a10.4,10.4,0,0,1,8.589-.423" fill="#fff"/></g><g id="change2_1"><path d="M329.54,231.642c9.522,1.518,17.836,7.156,25.539,12.972s15.361,12.073,24.488,15.189c9.01,3.075,18.748,2.85,28.262,3.038,3.575.071,7.528.363,10.028,2.928l-7.026,3.6c-.276.141-.6.352-.575.663s.649.293.526.007c-3.438.377-6.52,2.381-9.94,2.9a19.036,19.036,0,0,1-6.2-.3,40.915,40.915,0,0,1-16.592-6.771,90.619,90.619,0,0,1-8.212-7.119,148.825,148.825,0,0,0-12.763-10.463,69.578,69.578,0,0,0-8.964-5.725c-10.448-5.417-22.5-6.561-34.219-7.609l12.777-2.147a2,2,0,0,0-.895-1.149q4.235.076,8.463.354" fill="#231f20"/></g><g id="change2_2"><path d="M130.68,161.354c6.7,5.29,13.423,10.6,20.816,14.855s15.535,7.444,24.03,8.144c5.8.479,11.79-.188,17.322,1.623-.847,2.416-3.936,2.982-6.482,3.157q-4.233.289-8.465.582a44.6,44.6,0,0,1,6.662,3.021,4.716,4.716,0,0,1-2.691.5,35.712,35.712,0,0,1,8.868,7.362c-.923.928-2.478.491-3.68-.025-19.368-8.315-36.069-21.7-52.5-34.917a1.221,1.221,0,0,1-.543-.744c-.033-.314.354-.641.595-.437" fill="#231f20"/></g><g id="change2_3"><path d="M124.971,158.857a53.765,53.765,0,0,0,8.915,5.306c-5.523-6.052-12.734-9.6-19.275-14.3-7.339-5.274-14.912-10.214-22.528-15.072a21.808,21.808,0,0,0-7.227-3.432c-2.087-.417-4.253-.219-6.356-.547-4.267-.665-8.673-3.791-12.792-5.319a15.148,15.148,0,0,0-4.532-1.164,23.1,23.1,0,0,0-3.974.407c-4.085.533-8.222-.094-12.294-.721l-13.8-2.122c-5.37-.826-10.016-1.8-15.386-2.625-5.17-.792-10.774-1.224-15.331,1.35,7.789-.29,15.5,1.4,23.185,2.684,16.27,2.721,33.25,5.5,48.723,11.134,6.175,2.248,13.575,2.951,19.381,6,2.152,1.129,3.716,2.631,6.057,3.549,3.2,1.253,6.464,2.317,9.587,3.758a177.32,177.32,0,0,1,17.1,9.3l3.531,2.134-2.64-1.525" fill="#231f20"/></g><g id="change3_1"><path d="M75.6,119.953A24.227,24.227,0,0,1,89.4,122.3c-3.414,3.187-8.221,4.556-12.885,4.565s-8.56-1.468-12.931-2.31c-3.086-.6,3.957-2.944,4.6-3.152A36.778,36.778,0,0,1,75.6,119.953Z" fill="#d93932"/></g><g id="change4_1"><path d="M.128,119.9c7.039-.934,13.707-.03,20.669,1.073,7.242,1.147,14.491,2.246,21.74,3.344,6.338.96,12.6,2.418,18.808.143,3.445-1.263,6.686-2.878,10.278-3.735a34.647,34.647,0,0,1,10.679-.7c.269.02.274-.791-.02-.81a40.969,40.969,0,0,0-18.458,3.307,22.043,22.043,0,0,1-10.64,1.963c-3.571-.3-7.136-1.013-10.68-1.542q-10.546-1.575-21.1-3.1c-6.978-1-14.345-2.282-21.292-.457-.162.042-.149.534.013.512Z" fill="#be9a6e"/></g><g id="change4_2"><path d="M85.463,120.685c13.13,3.8,21.915,13.661,30.391,23.861,8.374,10.077,17.379,19.523,29.109,25.654.04.021.048-.075.022-.094a167.2,167.2,0,0,1-15.935-12.724,173,173,0,0,1-14.424-15.827c-7.715-9.138-16.824-19.04-29.146-21.3-.126-.023-.135.4-.017.433Z" fill="#be9a6e"/></g><g id="change4_3"><path d="M1.939,120.69c10.224,1.387,20.4,3.127,30.557,4.913,10.119,1.779,20.182,4.105,30.312,5.752.176.028.185-.511.025-.555C53.147,128.124,43,126.422,33.1,124.682c-10.346-1.821-20.759-3.192-31.179-4.5-.151-.019-.163.489.013.513Z" fill="#be9a6e"/></g><g id="change4_4"><path d="M64.745,131.685a100.2,100.2,0,0,0,17.432,6.756c5.268,1.5,10.223,2.753,15.093,5.367.152.081.134-.311.073-.377-3.685-4-9.407-4.755-14.427-6.093-6.167-1.644-12.165-3.707-18.142-5.931-.1-.037-.108.239-.029.278Z" fill="#be9a6e"/></g><g id="change4_5"><path d="M100.632,145.965c17.311,6.549,31.516,17.929,45.676,29.561,13.611,11.181,27.727,21.4,44.972,25.882.235.062.275-.428.074-.486-17.375-5.019-31.914-16.784-45.969-27.673-13.794-10.687-27.7-22.416-44.741-27.393-.042-.012-.045.1-.012.109Z" fill="#be9a6e"/></g><g id="change4_6"><path d="M190.1,195.352c5.432,2.756,10.015,6.819,14.988,10.287a130.645,130.645,0,0,0,14.57,8.895c9.8,5.077,21,9.167,32.178,8.511.321-.018.288-.718-.019-.758a97.8,97.8,0,0,1-32.933-10.06,152.816,152.816,0,0,1-14.543-8.747c-4.621-3.1-9.033-6.6-14.161-8.832-.257-.112-.293.6-.08.7Z" fill="#be9a6e"/></g><g id="change4_7"><path d="M154.249,175.472c8.1,5.258,17.212,7.295,26.776,7.695,11.068.464,22.368-.576,33.43-1.061.571-.025.532-1.452-.037-1.5-10.726-.842-21.581,1.054-32.334.873-9.511-.16-19.391-1.593-27.8-6.317-.1-.057-.12.252-.034.307Z" fill="#be9a6e"/></g><g id="change4_8"><path d="M228.2,188.757c-4.4-4.383-9.7-7.644-14.946-10.9-5.759-3.568-11.128-7.393-16.516-11.484-.422-.32-.467.633-.263.865,4.02,4.595,9.573,7.971,14.709,11.17a188.574,188.574,0,0,1,16.693,11.31c.475.371.606-.684.323-.964Z" fill="#be9a6e"/></g><g id="change4_9"><path d="M222.651,193.065a12.7,12.7,0,0,0,9.73-6.776c.069-.146-.036-.627-.2-.365a14.43,14.43,0,0,1-9.532,6.885c-.095.017-.083.269.006.256Z" fill="#be9a6e"/></g><g id="change4_10"><path d="M229.644,193.457c3.154-1.133,6.448-3.065,8.322-5.939.144-.22.026-1.086-.343-.773-1.332,1.132-2.469,2.43-3.9,3.459a23.485,23.485,0,0,1-4.223,2.407c-.272.119-.2.97.144.846Z" fill="#be9a6e"/></g><g id="change4_11"><path d="M238.369,192.254a12.136,12.136,0,0,0,3.176-3.667c.066-.145.028-.78-.243-.541a18.492,18.492,0,0,0-1.5,1.776,20.831,20.831,0,0,1-1.681,1.694c-.215.194-.064,1.015.253.738Z" fill="#be9a6e"/></g><g id="change4_12"><path d="M239.655,192.981a11.162,11.162,0,0,0,4.977-3.974c.094-.147.007-.74-.233-.518a19.181,19.181,0,0,1-4.892,3.635c-.282.132-.187,1.006.148.857Z" fill="#be9a6e"/></g><g id="change4_13"><path d="M235.141,197.161c4.192.022,9.233-1.532,11.7-5.173.078-.115.092-.8-.159-.624a34.4,34.4,0,0,1-4.964,3.468,16.1,16.1,0,0,1-6.6,1.529c-.3.008-.28.8.019.8Z" fill="#be9a6e"/></g><g id="change4_14"><path d="M240.381,201.67a14.822,14.822,0,0,0,6.457-6.375c.081-.178,0-1.032-.316-.693-1.018,1.086-1.81,2.374-2.851,3.454a36.807,36.807,0,0,1-3.422,3.1c-.125.1-.07.621.132.513Z" fill="#be9a6e"/></g><g id="change4_15"><path d="M243.858,203.9c2.978-2.109,5.966-4.979,7.334-8.439.057-.145-.088-.795-.3-.512-1.043,1.373-1.884,2.875-3.006,4.194a24.508,24.508,0,0,1-4.184,3.861c-.271.2-.138,1.107.159.9Z" fill="#be9a6e"/></g><g id="change4_16"><path d="M249.9,205.314c2.437-1.658,5.162-3.68,6.817-6.165.136-.205.015-.981-.321-.693-1.067.916-1.957,2.053-3,3.005a34.6,34.6,0,0,1-3.666,2.888c-.3.208-.154,1.187.173.965Z" fill="#be9a6e"/></g><g id="change4_17"><path d="M254.158,204.483a31.767,31.767,0,0,0,4.713-3.066c.184-.167.144-.9-.206-.773a27.525,27.525,0,0,0-4.7,2.786c-.345.215-.188,1.288.191,1.053Z" fill="#be9a6e"/></g><g id="change4_18"><path d="M253.167,206.929c4.064-.337,8.432-1.264,11.9-3.516.147-.1.126-.624-.09-.532-3.92,1.671-7.527,3.2-11.819,3.69-.131.014-.118.369.009.358Z" fill="#be9a6e"/></g><g id="change4_19"><path d="M254.746,209.015c4.6.58,9.318.8,13.821-.417.187-.05.2-.551-.014-.543-4.647.182-9.175.606-13.827.14-.283-.028-.287.782.02.82Z" fill="#be9a6e"/></g><g id="change4_20"><path d="M265.53,206.148c4.437,3.518,8.757,7.59,13.7,10.389.27.154.266-.534.138-.659-4.081-4.014-9.077-7.188-13.665-10.587-.261-.194-.389.683-.17.857Z" fill="#be9a6e"/></g><g id="change4_21"><path d="M260.945,213.682c3.891,1.654,8.263,2.805,12.509,2.174.316-.047.3-.807-.02-.831-4.288-.314-8.315-.622-12.387-2.167-.327-.124-.375.708-.1.824Z" fill="#be9a6e"/></g><g id="change4_22"><path d="M258.461,197.92c6.213,3.314,10.072,9.595,15.723,13.674,2.969,2.143,9.756,5.936,12.423,1.537.185-.3.046-1.441-.47-1.027-4.612,3.693-11.846-2.123-15.166-5.08-3.987-3.552-7.566-7.124-12.476-9.4-.108-.05-.125.249-.034.3Z" fill="#be9a6e"/></g><g id="change4_23"><path d="M283.26,206.077a15.5,15.5,0,0,0,.3,2.289c.093.347.313.02.32-.171a16.892,16.892,0,0,0-.215-2.338c-.057-.526-.447-.158-.405.22Z" fill="#be9a6e"/></g><g id="change4_24"><path d="M257.443,195c6.42,2.371,13.218,6.053,20.019,7.061,4.092.606,6.661-1.328,5.134-5.527-.194-.532-.582-.09-.559.288.389,6.523-8.5,2.489-11.808,1.371-4.211-1.421-8.456-2.732-12.669-4.146-.387-.129-.439.834-.117.953Z" fill="#be9a6e"/></g><g id="change4_25"><path d="M278.715,192.592a6.126,6.126,0,0,1,1.751,2.374c.112.22.23-.124.209-.229a4.751,4.751,0,0,0-1.8-2.672c-.234-.182-.325.4-.156.527Z" fill="#be9a6e"/></g><g id="change4_26"><path d="M255.448,188.615c5.462,2.2,12.45,6.262,18.484,3.958,3.5-1.337,5.734-5.164,3.92-8.691-.191-.371-.4.208-.359.4,1.462,6.028-5.27,7.807-9.842,7.133a62.964,62.964,0,0,1-12.13-3.384c-.237-.086-.271.5-.073.585Z" fill="#be9a6e"/></g><g id="change4_27"><path d="M255.623,184.4a16.717,16.717,0,0,0,15.064.955c3.015-1.32,5.446-3.875,4.453-7.315-.184-.634-.556.083-.521.416.5,4.791-5.774,6.539-9.38,6.9a21.367,21.367,0,0,1-9.568-1.347c-.162-.06-.164.321-.048.387Z" fill="#be9a6e"/></g><g id="change4_28"><path d="M245.156,176.426c7.028-.127,13.61,3.329,20.639,3.4,2.945.03,6.2-2.136,4.715-5.357-.208-.45-.415.273-.395.449.62,5.44-9.487,3.056-12.249,2.682-4.231-.573-8.427-1.663-12.719-1.543-.131,0-.123.372.009.369Z" fill="#be9a6e"/></g><g id="change4_29"><path d="M191.706,161.741c6.405.678,12.817,1.874,19.174,2.915,6.3,1.031,12.609,2.957,18.935,3.618.247.026.23-.663.032-.736-5.773-2.131-12.328-2.893-18.379-3.892-6.584-1.087-13.128-1.509-19.765-2.028-.038,0-.04.119,0,.123Z" fill="#be9a6e"/></g><g id="change4_30"><path d="M241.74,170.785c17.646,5.613,37.161,2.332,53.414,12.579.149.094.183-.325.085-.405-14.77-12.165-35.962-8.725-53.487-12.446-.081-.017-.088.248-.012.272Z" fill="#be9a6e"/></g><g id="change4_31"><path d="M301.694,187.063c5.955,4.835,11.581,10.4,18.025,14.581,6.537,4.24,14.651,6.864,22.127,8.878.238.065.244-.429.07-.516-6.836-3.4-14.374-5.406-20.987-9.237-6.778-3.927-12.994-9.216-19.177-14.017-.086-.067-.134.249-.058.311Z" fill="#be9a6e"/></g><g id="change4_32"><path d="M268.913,158.221c11.568,7.812,20.866,18.609,32.206,26.756,9.549,6.861,23.607,14.073,35.671,10.288.238-.075.195-.692-.074-.693-6.7-.033-12.809-.287-19.211-2.563a67.609,67.609,0,0,1-17.082-9.351c-10.794-7.9-20.173-17.307-31.5-24.506-.02-.013-.026.056-.007.069Z" fill="#be9a6e"/></g><g id="change4_33"><path d="M128.375,83.579c6.009,6.909,10.05,15.162,14.457,23.124,4.073,7.359,8.463,15.53,15.417,20.514.339.244.374-.5.207-.687a123.815,123.815,0,0,1-15.838-22.237c-4.191-7.35-8.5-14.616-14.195-20.91-.064-.071-.092.146-.048.2Z" fill="#be9a6e"/></g><g id="change4_34"><path d="M161.188,130.632c3.713,4.1,7.329,8.277,11.1,12.325,3.642,3.907,7.169,8.256,11.346,11.6.223.178.291-.293.2-.423-6.368-8.793-14.952-16.25-22.488-24.01-.2-.208-.3.358-.158.509Z" fill="#be9a6e"/></g><g id="change4_35"><path d="M90.653,9.537c-.08,6.387,3.6,11.765,6.14,17.381,3.164,7.006,5.518,14.338,8.534,21.4,5.541,12.981,13.88,24.521,23.078,35.123.237.273.391-.227.257-.419-7.805-11.191-16.468-21.868-22.043-34.436-2.71-6.109-4.808-12.468-7.469-18.6-2.893-6.661-7.942-13.014-8.336-20.46-.01-.185-.158-.182-.161,0Z" fill="#be9a6e"/></g><g id="change4_36"><path d="M100.61,20.484c-.155-.22-.307-.441-.474-.653-.041-.052-.061.085-.043.114.14.234.293.459.444.686.065.1.114-.089.073-.147Z" fill="#be9a6e"/></g><g id="change4_37"><path d="M100.544,21.155c7.52,11.227,14.59,22.77,21.437,34.42q4.964,8.442,9.658,17.038c3.285,6,6.1,12.457,9.819,18.2.362.558.682-.357.552-.691-2.3-5.917-5.717-11.568-8.739-17.148-3.3-6.1-6.745-12.131-10.272-18.107-6.927-11.74-14.413-23.1-22.154-34.317-.277-.4-.46.372-.3.61Z" fill="#be9a6e"/></g><g id="change4_38"><path d="M131.634,87.524a117.128,117.128,0,0,1,14.953,12.044c4.6,4.452,7.977,9.4,11.464,14.714.4.606.735-.4.586-.767C153.765,101.729,142,93.58,131.713,86.938c-.2-.132-.26.46-.079.586Z" fill="#be9a6e"/></g><g id="change4_39"><path d="M143.652,101.515c3.061,2.718,6.188,5.372,9.108,8.246a110.882,110.882,0,0,1,8.434,9.931c.24.3.427-.208.321-.418-3.794-7.519-11.2-13.206-17.7-18.259-.236-.183-.313.363-.159.5Z" fill="#be9a6e"/></g><g id="change4_40"><path d="M142.052,103.806c5.334,6.572,10.827,13.14,17.176,18.76.278.246.366-.42.2-.6-5.758-6.2-11.758-12.164-17.224-18.643-.173-.2-.276.33-.152.482Z" fill="#be9a6e"/></g><g id="change4_41"><path d="M144.928,91.318a37.184,37.184,0,0,0,6.845,12.651c.268.321.377-.482.275-.66-2.341-4.086-4.528-8.27-6.874-12.345-.17-.3-.288.216-.246.354Z" fill="#be9a6e"/></g><g id="change4_42"><path d="M144.923,90.5a126.275,126.275,0,0,1,10.688,10.592c3.314,3.669,6.093,7.8,9.4,11.451.46.507.61-.745.45-1.026-4.83-8.483-12.846-15.618-20.345-21.66-.286-.23-.385.476-.193.643Z" fill="#be9a6e"/></g><g id="change4_43"><path d="M158.48,97.283c.354,3.4,1.5,7.7,4.093,10.1.32.3.346-.47.267-.627-1.641-3.263-3.265-6.024-3.913-9.7-.1-.546-.488-.163-.447.226Z" fill="#be9a6e"/></g><g id="change4_44"><path d="M158.308,97.406a86.529,86.529,0,0,1,8.91,7.128c2.968,2.8,5.156,6.034,7.554,9.3.285.388.462-.269.378-.5-2.741-7.5-10.234-12.639-16.65-16.8-.313-.2-.436.7-.192.877Z" fill="#be9a6e"/></g><g id="change4_45"><path d="M168.585,99.5c.933,1.739,1.857,3.482,2.8,5.218A22.886,22.886,0,0,0,174,109.116c.25.283.332-.395.286-.526-1.186-3.416-3.55-6.614-5.347-9.741-.266-.463-.5.374-.351.654Z" fill="#be9a6e"/></g><g id="change4_46"><path d="M169.468,100.2c4.392,2.538,8.368,5.193,11.474,9.278.218.287.377-.2.288-.392-2.272-4.774-7.176-7.372-11.651-9.73-.321-.169-.386.685-.111.844Z" fill="#be9a6e"/></g><g id="change4_47"><path d="M102.915,4.729c8.615,12.981,14.741,27.385,21.325,41.457,3.067,6.556,6.512,12.849,9.869,19.254,1.824,3.48,3.832,6.857,5.709,10.307,2.106,3.869,3.71,7.946,5.712,11.855.252.491.619.009.532-.373-1.584-7.02-6.073-13.559-9.694-19.669-4.446-7.5-8.056-15.446-11.776-23.334-6.462-13.7-12.918-27.371-21.547-39.87-.109-.157-.2.271-.13.373Z" fill="#be9a6e"/></g><g id="change4_48"><path d="M111.242,5.127c-.065,6.726.8,13.671,3.525,19.865.138.314.278-.235.239-.373-1.823-6.473-3.233-12.74-3.336-19.5-.009-.524-.422-.512-.428.01Z" fill="#be9a6e"/></g><g id="change4_49"><path d="M116.256,4.321c8.892,14.289,16.27,29.477,23.637,44.592,3.528,7.239,7.046,14.48,10.027,21.968,3.167,7.953,5.306,16.43,8.805,24.226.272.606.736,0,.635-.442-1.831-8.01-5.034-15.954-8.029-23.589-3.068-7.822-6.755-15.346-10.465-22.876-7.463-15.149-15.141-30.148-24.43-44.268-.169-.256-.27.244-.18.389Z" fill="#be9a6e"/></g><g id="change4_50"><path d="M91.275,6.427a20.081,20.081,0,0,1,6.394,9.183c.148.431.357-.12.29-.354A17.3,17.3,0,0,0,91.333,5.9c-.151-.108-.192.418-.058.526Z" fill="#be9a6e"/></g><g id="change2_4"><path d="M101.718,9.318c-.108,0-.109-.352,0-.352s.109.352,0,.352Z" fill="#231f20"/></g><g id="change4_51"><path d="M101.933,4.947a18.516,18.516,0,0,0-.028,10.921c.168.51.452-.061.4-.35a26.449,26.449,0,0,1-.112-10.277c.04-.2-.148-.678-.26-.294Z" fill="#be9a6e"/></g><g id="change4_52"><path d="M130.444,10.281c-1.1,5.554-1.416,11.652,0,17.181.108.423.413.048.392-.22a80.653,80.653,0,0,1-.042-16.673c.03-.242-.256-.749-.347-.288Z" fill="#be9a6e"/></g><g id="change4_53"><path d="M131.292,10.149c3.088,1.1,4.678,7.786,5.924,10.573q2.508,5.607,5.043,11.2,5.027,11.062,10.057,22.123c3.113,6.837,6.229,13.666,8.748,20.751a206.481,206.481,0,0,1,6.555,23.751c.234,1.032,1.064.358.929-.443-2.738-16.209-9.16-31.238-16.016-46.047Q147.1,40.332,141.659,28.615c-1.881-4.049-3.772-8.1-5.716-12.115-1.075-2.221-1.968-5.84-4.62-6.639-.109-.032-.12.257-.031.288Z" fill="#be9a6e"/></g><g id="change4_54"><path d="M147.7,40.175c-1.384-7.628-.5-15.639-2.293-23.163-.1-.421-.426-.273-.4.114.58,7.65.46,15.8,2.448,23.244.077.287.272-.025.241-.2Z" fill="#be9a6e"/></g><g id="change4_55"><path d="M146.238,14.863c2.608,1.226,3.581,5.27,4.6,7.726q1.547,3.706,2.989,7.456c1.825,4.77,3.354,9.651,5.231,14.4.148.374.392-.025.331-.269a133.8,133.8,0,0,0-6.166-17.621c-1.1-2.689-2.222-5.373-3.451-8-.855-1.831-1.507-3.467-3.48-4.212-.2-.075-.217.451-.059.525Z" fill="#be9a6e"/></g><g id="change4_56"><path d="M161.128,49.681c2.235,8.489,4.421,16.99,6.718,25.463,2.07,7.636,3.664,15.636,6.426,23.052.253.677.724-.035.643-.47-1.533-8.235-4.36-16.364-6.6-24.433-2.221-8.018-4.557-16-6.839-24-.137-.479-.426.112-.352.392Z" fill="#be9a6e"/></g><g id="change4_57"><path d="M161.936,47.783c-.277-4.8-.423-9.737,2.318-13.826,1.417-2.113,1.627-3.233,1.877-5.923.023-.248-.209-.732-.363-.284.079-.231-.611,2.246-.483,1.948-.59,1.378-1.837,2.531-2.521,3.837a7.413,7.413,0,0,0-.746,1.954,43.5,43.5,0,0,0-.556,12.305c.035.531.505.532.474-.011Z" fill="#be9a6e"/></g><g id="change4_58"><path d="M166.663,25.864c.383-.424,1.669,4.972,1.742,5.411.282,1.673.543,3.35.843,5.02q.867,4.829,1.975,9.614c1.534,6.579,3.178,13.164,4.807,19.731,3.291,13.261,6.033,26.4,7.168,40.039.06.726.721.728.721-.018.011-14.18-3.722-28.267-7.369-41.87-2.005-7.476-4.019-14.841-5.642-22.413-.785-3.663-1.4-7.351-2.1-11.029-.291-1.525-.243-4.654-1.975-5.323a.1.1,0,0,0-.126.036l-.211.293c-.1.136-.027.723.166.509Z" fill="#be9a6e"/></g><g id="change4_59"><path d="M177.1,60.214c-.248-3.585-.426-7.351.478-10.86.668-2.593,2.445-4.731,3.023-7.32.731-3.277-.393-5.952,1.57-9.174.783-1.284,1.385-1.838,1.246-3.381-.047-.517-.444-.529-.432.01.047,2.1-2.478,3.772-2.891,5.913a13.936,13.936,0,0,0-.132,2.724,14.066,14.066,0,0,1-1.48,6.4c-2.415,5.024-2.061,10.272-1.669,15.7.023.323.31.324.287-.007Z" fill="#be9a6e"/></g><g id="change4_60"><path d="M184.582,29.689c.805,13.2,1.45,26.42,2.109,39.629q.487,9.748.873,19.5c.248,6.3.085,12.728.868,18.982.053.425.489.419.516-.013.39-6.072-.18-12.268-.425-18.342Q188.118,79.37,187.6,69.3c-.683-13.229-1.678-26.413-2.784-39.611-.024-.283-.251-.288-.233,0Z" fill="#be9a6e"/></g><g id="change4_61"><path d="M189.056,59.389c-.269-6.537,3.513-12.629,2.236-19.245-.046-.24-.215-.139-.21.063.1,4.081-.876,7.909-1.78,11.85-.573,2.5-1.177,4.892-.624,7.441.089.409.393.252.378-.109Z" fill="#be9a6e"/></g><g id="change4_62"><path d="M192.789,40.136c3.693,19.139,3.413,38.981,4.226,58.379.042,1,.908.974.933-.023.261-10.284-.418-20.67-1.175-30.922-.666-9.018-.8-18.953-3.874-27.532-.051-.14-.126.017-.11.1Z" fill="#be9a6e"/></g><g id="change4_63"><path d="M198.5,75.566a29.566,29.566,0,0,1,2.6-10.734c.922-1.934,2.323-3.66,3.083-5.663.638-1.68.04-3.312.531-4.868,1.087-3.451,2.288,3.671,2.352,4.6.1,1.482.113,2.977.157,4.462.393,13.054-.917,25.653-2.827,38.537-.073.493.531,1.358.735.523A130.035,130.035,0,0,0,208.3,74.184a120.333,120.333,0,0,0-.507-14.208c-.29-2.89-.636-5.257-2.766-7.337-.045-.044-.083-.013-.109.03-.883,1.415-.812,2.336-1.092,3.948-.455,2.615-2.271,4.7-3.372,7.071a25.135,25.135,0,0,0-2.311,11.8c.014.3.325.476.354.079Z" fill="#be9a6e"/></g><g id="change4_64"><path d="M208.409,80.128a33.86,33.86,0,0,0,2.248-5.09c.6-1.768,1.1-6.788,3.31-7.275.129-.029.121-.337-.008-.359-1.918-.331-2.229,1.763-2.527,3.215a32.784,32.784,0,0,1-3.3,9.015c-.111.207.083.848.273.494Z" fill="#be9a6e"/></g><g id="change4_65"><path d="M214.552,66.92a114.888,114.888,0,0,1,.151,20.5c-.68,6.593-2.555,12.932-3.434,19.471-.032.235.285,1.025.5.5,2.6-6.339,3.488-13.916,4.08-20.7.574-6.568.634-13.474-1.117-19.877-.053-.193-.189-.022-.179.1Z" fill="#be9a6e"/></g><g id="change4_66"><path d="M216.273,93.722c.954-3.145,1.969-6.271,2.917-9.418a19.529,19.529,0,0,1,1.06-3.567q-.007-2.131,1.679-.609.247,1.161.5,2.32c1.321,6.57,1.059,12.849.7,19.5-.023.421.489,1.316.7.492,2.009-7.99.887-17.389-1.972-25.038-.038-.1-.172-.34-.321-.234-1.677,1.2-1.857,3.679-2.391,5.54-1.037,3.616-2,7.253-3.018,10.873-.031.111.087.333.144.146Z" fill="#be9a6e"/></g><g id="change4_67"><path d="M223.927,105.024a13.813,13.813,0,0,1,2.168-5.161c1-1.406,2.3-2.588,3.182-4.069.085-.142.152-1.076-.2-.876-1.658.95-2.969,2.927-3.936,4.527A9.832,9.832,0,0,0,223.5,104.8c.01.28.312.717.426.225Z" fill="#be9a6e"/></g><g id="change4_68"><path d="M230.4,94.626a73.127,73.127,0,0,1-5.362,24.874c-3.157,7.555-7.635,13.99-12.643,20.4-.088.113-.045.6.141.431,12.213-11.032,18.521-29.432,18.169-45.624-.006-.285-.286-.467-.305-.08Z" fill="#be9a6e"/></g><g id="change4_69"><path d="M213.777,146.377c8.182-1.838,14.066-10.545,18.049-17.362a61.9,61.9,0,0,0,8.342-26.377c.02-.315-.259-.651-.332-.177a69.969,69.969,0,0,1-8.625,25.432c-4,6.829-9.723,15-17.513,17.65-.243.082-.184.893.079.834Z" fill="#be9a6e"/></g><g id="change4_70"><path d="M232.671,104.546a43.52,43.52,0,0,1,4.621-5.611,13.847,13.847,0,0,0,1.739-2.52l.267-.542q.075-.95.661-.3c1.076.235.661,2.3.628,3.155-.015.379.4.885.545.285.215-.907.09-6.311-1.675-4.708-.648.589-1.108,2.359-1.6,3.109-.522.792-1.092,1.555-1.67,2.306a47.93,47.93,0,0,0-3.52,4.809s0,.023.006.016Z" fill="#be9a6e"/></g><g id="change4_71"><path d="M223.81,142.928a82.067,82.067,0,0,0,17.717-20.495c4.415-7.265,8.306-16,6.916-24.714-.048-.3-.258-.169-.25.077.556,17.531-12.046,33.631-24.464,44.8-.08.072-.013.414.081.336Z" fill="#be9a6e"/></g><g id="change4_72"><path d="M242.35,101.1a22.163,22.163,0,0,0,2.352-2.026c.529-.479,1.532-1.763,2.338-1.272.3.182.227-.661.138-.781-.569-.776-1.4,0-1.9.48a36.615,36.615,0,0,0-3.052,3.077c-.078.1-.062.644.119.522Z" fill="#be9a6e"/></g><g id="change4_73"><path d="M249.447,105.09a10.749,10.749,0,0,0,4.224-3.769c.035-.061.019-.461-.111-.365-.72.526-1.3,1.228-1.97,1.815a21.213,21.213,0,0,1-2.239,1.709c-.163.108-.107.724.1.61Z" fill="#be9a6e"/></g><g id="change4_74"><path d="M255.069,101.129c.942,2.645.657,5.135.11,7.812-.054.261.16,1.377.492.74,1.452-2.788.9-6.247-.35-8.981-.156-.341-.309.269-.252.429Z" fill="#be9a6e"/></g><g id="change4_75"><path d="M239.98,130.485A101.7,101.7,0,0,0,253.25,115.3c1.73-2.469,3.241-5.077,4.942-7.563a37.117,37.117,0,0,1,6.836-7.011c.162-.141.264-1.073-.088-.985-5.4,1.341-8.348,8.747-11.058,13.006A101.934,101.934,0,0,1,239.9,130.23c-.065.065-.018.35.082.255Z" fill="#be9a6e"/></g><g id="change4_76"><path d="M265.72,102.5c.135,6.484-3.36,11.728-6.376,17.169-.074.134.035.733.2.5,3.847-5.2,6.889-11.038,6.525-17.681-.024-.432-.363-.432-.354.009Z" fill="#be9a6e"/></g><g id="change4_77"><path d="M257.693,120.339A69.286,69.286,0,0,1,243.76,138.66c-5.808,5.572-12.409,9.088-19.055,13.42-.274.179-.26,1.146.168,1.015,7.2-2.2,14.028-7.906,19.309-13.13A73.181,73.181,0,0,0,257.826,120.6c.051-.1-.039-.441-.133-.258Z" fill="#be9a6e"/></g><g id="change4_78"><path d="M263.464,114.827c1.536-1.275,3.112-2.5,4.755-3.63,1.327-.915,3.313-2.673,4.906-2.932,3.974-.648,1.388,6.228.44,8.04s-2.18,3.49-3.218,5.265c-.125.215,0,1.212.344.846a20.478,20.478,0,0,0,4.683-7.8c.487-1.608,1.16-4.719.218-6.319-.779-1.323-2.045-.918-3.242-.319a47.682,47.682,0,0,0-8.957,6.4c-.119.1-.044.548.071.453Z" fill="#be9a6e"/></g><g id="change4_79"><path d="M238.124,152.453A81.432,81.432,0,0,0,266.1,139.076a79.849,79.849,0,0,0,10.813-9.965c3.44-3.814,7.079-8.073,8.445-13.133.055-.2-.14-1.014-.354-.55-4.33,9.394-12.187,17.091-20.376,23.212a80.654,80.654,0,0,1-26.511,13.372c-.154.044-.115.476.011.441Z" fill="#be9a6e"/></g><g id="change4_80"><path d="M259.928,133.788c3.927-3.083,7.607-6.428,11.247-9.842q2.911-2.73,5.864-5.414c.544-.494,5.411-5.086,5.672-4.032.206.831.64-.136.585-.552-.555-4.219-6.853,3.665-7.77,4.612a177.812,177.812,0,0,1-15.642,14.953c-.073.058-.03.333.044.275Z" fill="#be9a6e"/></g><g id="change4_81"><path d="M257.273,150.421a68.974,68.974,0,0,0,20.616-7.469c5.488-3.069,13.03-7.225,15.146-13.577.118-.353-.205-1.691-.48-.974-2.444,6.36-10.158,10.6-15.833,13.782a88.085,88.085,0,0,1-19.455,7.992c-.082.022-.07.261.006.246Z" fill="#be9a6e"/></g><g id="change4_82"><path d="M280.429,130.969c2-1,4.02-1.951,6.078-2.823q1.325-.561,2.658-1.1c.666-.27,4.153-2.3,3.683-.218-.027.118.086,1.01.316.652.707-1.1.8-2.892-.808-3.049-1.286-.124-3.972,1.735-5.121,2.323-2.331,1.2-4.611,2.49-6.866,3.823-.107.063-.072.46.06.394Z" fill="#be9a6e"/></g><g id="change4_83"><path d="M281.92,123.156q.96-1.011,1.9-2.034a13.816,13.816,0,0,0,1.862-2.18c.028-.048.042-.382-.067-.308a10.162,10.162,0,0,0-1.794,1.987q-.982,1.182-1.951,2.376c-.031.039-.009.218.046.159Z" fill="#be9a6e"/></g><g id="change4_84"><path d="M287.52,119.494c.216,3.909-2.3,6.6-3.9,9.876-.094.193-.027,1.177.317.83a14.19,14.19,0,0,0,3.9-10.812c-.039-.417-.344-.232-.325.106Z" fill="#be9a6e"/></g><g id="change4_85"><path d="M265.2,152.406a90.027,90.027,0,0,0,23.223-7.883c5.626-2.878,13.46-6.591,15.178-13.3.064-.252-.145-1.329-.442-.728-3.272,6.611-10.17,10.047-16.507,13.219a104.431,104.431,0,0,1-21.468,8.04c-.214.053-.17.695.016.656Z" fill="#be9a6e"/></g><g id="change2_5"><path d="M293.708,131.879c-.052,0-.053-.168,0-.168s.052.168,0,.168Z" fill="#231f20"/></g><g id="change4_86"><path d="M293.246,131.5l-.47.028c-.139.008-.13.451.011.453,1.443.024,2.872.009,4.312-.094.433-.031,4.3-.126,4.4-.4-.035.1-.063.884.2.707.747-.5.249-1.651-.476-1.849-1.052-.287-2.762.242-3.819.373-1.559.192-3.09.473-4.626.805,0,.151.008.3.011.453l.467-.153c.093-.031.1-.335-.008-.328Z" fill="#be9a6e"/></g><g id="change4_87"><path d="M269.9,159.54c8.807-.544,17.234-3.973,24.612-8.712,4.595-2.951,13.361-8.021,11.414-14.742-.151-.521-.43-.035-.421.267.138,4.832-4.115,7.779-7.592,10.319a78.233,78.233,0,0,1-8.4,5.366,58.776,58.776,0,0,1-19.631,6.682c-.265.04-.24.836.02.82Z" fill="#be9a6e"/></g><g id="change4_88"><path d="M301.956,136.374a4.519,4.519,0,0,1,1.765.851c.222.13.157-.507.1-.593a2.481,2.481,0,0,0-1.88-.914c-.2-.017-.2.625.016.656Z" fill="#be9a6e"/></g><g id="change4_89"><path d="M297.065,151.4a56.754,56.754,0,0,1,7.632-1.143c2.918-.3,5.919-.952,8.075,1.586.259.305.308-.5.269-.624-.764-2.345-2.684-2.812-5.022-2.688a46.063,46.063,0,0,0-10.971,2.151c-.229.071-.182.766.017.718Z" fill="#be9a6e"/></g><g id="change4_90"><path d="M280.792,163.686A42.468,42.468,0,0,0,298.45,161.9c4.592-1.483,11.367-3.763,13.566-8.46.1-.211-.053-1.283-.342-.877-3.163,4.431-9.44,6.757-14.454,8.314a58.19,58.19,0,0,1-16.434,2.544c-.088,0-.083.257.006.266Z" fill="#be9a6e"/></g><g id="change4_91"><path d="M287.21,169.544a54.332,54.332,0,0,0,19.233.393,57.022,57.022,0,0,0,8.058-1.911c1.857-.588,3.576-.983,4.045-3.019.111-.486-.317-1.665-.63-.73-.761,2.268-6.133,2.916-8.072,3.384A66.259,66.259,0,0,1,302.351,169a73.9,73.9,0,0,1-15.149.229c-.1-.009-.1.3.008.318Z" fill="#be9a6e"/></g><g id="change4_92"><path d="M303.51,162.185a66.246,66.246,0,0,1,7.324.567c1.945.259,5.564.185,6.9,1.717.219.252.238-.41.218-.5-.433-1.915-2.351-1.773-4.024-1.949a76.877,76.877,0,0,0-10.426-.279c-.143,0-.135.438.011.441Z" fill="#be9a6e"/></g><g id="change4_93"><path d="M298.154,177.487a50.741,50.741,0,0,0,16.344.971c2.907-.359,7.159-.5,8.006-3.9.04-.162-.131-1.262-.419-.8-2.063,3.287-7.932,3.16-11.395,3.434a57.937,57.937,0,0,1-12.55-.267c-.176-.025-.18.525.014.564Z" fill="#be9a6e"/></g><g id="change4_94"><path d="M309.026,169.915c4.093,1.192,8.68,1.914,12.113,4.524.284.216.249-.663.2-.768-.772-1.615-2.3-2.142-3.968-2.556-2.752-.681-5.549-1.137-8.323-1.7-.147-.03-.162.463-.021.5Z" fill="#be9a6e"/></g><g id="change4_95"><path d="M316.369,179.766a58.6,58.6,0,0,1,6.116,3.874,17.927,17.927,0,0,1,4.322,5.33c.323.542.594-.316.524-.607-1.218-5.008-6.444-7.768-10.866-9.46-.332-.127-.328.723-.1.863Z" fill="#be9a6e"/></g><g id="change4_96"><path d="M315.273,190.457a64.983,64.983,0,0,1,9.35,1.39,42.592,42.592,0,0,1,7.563,3.172c.474.225.454-.922.229-1.131-4.406-4.074-11.522-4.144-17.161-4.21-.274,0-.259.749.019.779Z" fill="#be9a6e"/></g><g id="change4_97"><path d="M307.242,139.354c2.364,1.163,4.165,2.857,6.255,4.4.221.164.186-.557.114-.659a13.921,13.921,0,0,0-6.29-4.506c-.265-.107-.3.656-.079.763Z" fill="#be9a6e"/></g><g id="change4_98"><path d="M309.259,148.711A51.185,51.185,0,0,0,330.591,135.1c2.822-2.921,5.315-6.142,8.119-9.079a39.175,39.175,0,0,1,10.545-7.8c.235-.123.227-1.063-.089-1-7.414,1.371-12.389,8.837-17.074,14.09-6.468,7.253-14.2,12.239-22.928,16.326-.278.13-.2,1.165.1,1.075Z" fill="#be9a6e"/></g><g id="change4_99"><path d="M63.045,125.061A19.808,19.808,0,0,0,75.912,128.3c5.173-.411,9.151-3.367,14.021-4.753.5-.144.508-1.605-.038-1.548-4.589.481-8.344,3.809-13.009,4.466-4.79.674-9.328-.385-13.758-2.18-.293-.119-.271.644-.083.774Z" fill="#be9a6e"/></g><g id="change4_100"><path d="M74.961,128.061a1,1,0,0,0-.27.508c-.024.071.036.457.159.3a1.094,1.094,0,0,0,.254-.536c.019-.064-.018-.408-.143-.27Z" fill="#be9a6e"/></g><g id="change4_101"><path d="M74.723,128.979c.928-.89,3.4-.724,4.582-.624a4.5,4.5,0,0,1,4.162,2.668c.2.39.41-.149.4-.347-.115-4.045-7.059-4.895-9.352-2.33-.147.166-.049.875.2.633Z" fill="#be9a6e"/></g><g id="change4_102"><path d="M76.267,130.422c.793-.026,1.59-.107,2.384-.075.547.022,2.067.008,2.325.629.327.786.649-.228.533-.65-.512-1.875-4.038-1.257-5.318-.728-.223.092-.2.833.076.824Z" fill="#be9a6e"/></g><g id="change4_103"><path d="M76.257,130.567c1.107.863,3.389,1.578,4.615.628.193-.15.28-.825-.023-.919a9.893,9.893,0,0,0-2.09-.116,9.151,9.151,0,0,1-2.379-.683c-.451-.174-.368.9-.123,1.09Z" fill="#be9a6e"/></g><g id="change4_104"><path d="M75.446,130.371c3.2,1.328,6.689-.106,9.882,1.058,1.677.612,3.26,2.118,4.717,3.139q2.589,1.813,5.188,3.613c3.258,2.255,6.509,4.518,9.721,6.837,3.131,2.26,6.143,4.923,9.544,6.761.432.233.405-.789.217-.98-5.578-5.709-13.137-10.227-19.811-14.546-3.02-1.954-6.058-4.113-9.542-5.117-3.269-.943-6.69.163-9.874-1.132-.134-.055-.159.318-.042.367Z" fill="#be9a6e"/></g><g id="change4_105"><path d="M154.329,178.64c7.34,3.368,14.64,6.2,22.7,7.191,8.2,1.008,16.518,1.5,24.743,2.314.424.042.409-1.1.058-1.211-7.32-2.39-15.47-1.965-23.072-2.515a65.673,65.673,0,0,1-12.709-1.828,79.723,79.723,0,0,1-11.647-4.576c-.223-.1-.271.534-.072.625Z" fill="#be9a6e"/></g><g id="change4_106"><path d="M187.028,187.88c4.873.2,10.585,1.155,15.37.158.177-.036.208-.5.026-.544-4.789-1.121-10.514-.345-15.412-.28-.238,0-.227.656.016.666Z" fill="#be9a6e"/></g><g id="change4_107"><path d="M180.8,188.956c5.957.569,12.384.92,18.27-.379.275-.06.277-.785-.019-.779-6.147.133-12.109.722-18.274.246-.314-.024-.316.88.023.912Z" fill="#be9a6e"/></g><g id="change4_108"><path d="M176.994,189.941c6.783,1.053,14.618,1.662,21.216-.646.2-.071.176-.693-.066-.683-7.165.268-13.955,1.37-21.17.529-.271-.032-.275.754.02.8Z" fill="#be9a6e"/></g><g id="change4_109"><path d="M179.411,191.538a19.057,19.057,0,0,0,5.838,1.537c.21.005.2-.526.028-.585-1.885-.65-3.893-.92-5.791-1.577-.247-.086-.282.548-.075.625Z" fill="#be9a6e"/></g><g id="change4_110"><path d="M179.363,193.53a33.666,33.666,0,0,1,5.415,2.217c1.707.874,3.25,2.093,4.973,2.9.355.167.317-.659.168-.81-2.685-2.731-6.844-4.117-10.468-5.033-.3-.076-.33.649-.088.724Z" fill="#be9a6e"/></g><g id="change4_111"><path d="M182.292,196.13c2.159,1.008,4.269,2.1,6.323,3.31,1.991,1.172,3.85,2.707,5.929,3.694.461.219.411-.84.219-1.036-3.214-3.3-8.1-5.335-12.36-6.861-.364-.13-.4.76-.111.893Z" fill="#be9a6e"/></g><g id="change4_112"><path d="M196.948,203.369c1.714.744,3.379,1.58,5.042,2.432a25.2,25.2,0,0,0,4.911,2.361c.341.089.32-.543.157-.7-2.64-2.513-6.636-3.736-10-4.95-.362-.131-.408.726-.113.854Z" fill="#be9a6e"/></g><g id="change4_113"><path d="M279.816,185.933c8.81,1.367,17.3.557,25.543,4.563.362.176.329-.753.108-.922-7.062-5.414-17.434-2.989-25.661-4.03-.13-.017-.134.367.01.389Z" fill="#be9a6e"/></g><g id="change4_114"><path d="M275.052,178.949a27.287,27.287,0,0,1,10.69.17c.22.037.218-.609.03-.676a18.265,18.265,0,0,0-10.734-.058c-.2.052-.167.6.014.564Z" fill="#be9a6e"/></g><g id="change4_115"><path d="M281.148,194.517c11.1.922,21.369,9.54,32.723,7.8.326-.05.313-.875-.022-.892-11.42-.584-21.356-7.018-32.718-7.585-.239-.012-.236.656.017.676Z" fill="#be9a6e"/></g><g id="change4_116"><path d="M287,201.808c8,3.814,15.916,8.618,24.619,10.625,6.688,1.542,15.227,1.731,21.034-2.522.268-.2.274-1.208-.18-1.034-3.571,1.369-6.948,2.659-10.815,2.93a38.681,38.681,0,0,1-11.924-1.223c-8.008-1.975-15.236-5.923-22.66-9.391-.226-.106-.276.519-.074.615Z" fill="#be9a6e"/></g><g id="change4_117"><path d="M288.752,212.019c2.082.7,4.158,1.419,6.256,2.065.243.075.265-.516.072-.595-2.056-.841-4.141-1.611-6.217-2.4-.357-.136-.426.827-.111.933Z" fill="#be9a6e"/></g><g id="change4_118"><path d="M288.3,216.06c3.1,1.072,6.178,2.2,9.334,3.091.279.078.3-.575.083-.665-3.05-1.263-6.185-2.292-9.3-3.378-.377-.132-.435.841-.115.952Z" fill="#be9a6e"/></g><g id="change4_119"><path d="M326.472,172.2c4.165-.691,9.43-2.436,11.981-6.043.086-.122.127-.762-.158-.624-1.845.889-3.376,2.47-5.2,3.463a27.555,27.555,0,0,1-6.635,2.548c-.238.058-.218.695.016.656Z" fill="#be9a6e"/></g><g id="change4_120"><path d="M330.045,168.365c4.882-.534,10.077-2.1,13.707-5.563.159-.152.114-.929-.194-.764-4.508,2.408-8.379,4.665-13.533,5.517-.3.05-.275.842.02.81Z" fill="#be9a6e"/></g><g id="change4_121"><path d="M332.024,163.849a42.186,42.186,0,0,0,12.474-.672c.225-.055.236-.631-.016-.635-4.137-.074-8.337.475-12.474.671-.234.011-.22.621.016.636Z" fill="#be9a6e"/></g><g id="change4_122"><path d="M337.6,158.211c5.867.277,12.146-.6,16.973-4.2.167-.124.178-.752-.112-.65-5.635,1.975-10.8,4.006-16.879,4.107-.262,0-.249.725.018.738Z" fill="#be9a6e"/></g><g id="change4_123"><path d="M343.607,151.363a14.277,14.277,0,0,0,8.292-2.02c.194-.125.178-.794-.119-.69a31.623,31.623,0,0,1-8.191,1.992c-.259.019-.243.709.018.718Z" fill="#be9a6e"/></g><g id="change4_124"><path d="M345.392,146.57a20.263,20.263,0,0,0,3.615-.554c.232-.077.184-.735-.073-.754a19.11,19.11,0,0,0-3.566.354c-.349.042-.3,1,.024.954Z" fill="#be9a6e"/></g><g id="change4_125"><path d="M336.924,171.462c4.274.591,9.092,2.6,11.527,6.37.244.377.419-.263.345-.469-1.66-4.59-7.476-6.487-11.9-6.915-.372-.037-.368.96.025,1.014Z" fill="#be9a6e"/></g><g id="change4_126"><path d="M328.689,178.69c4.765.138,9.836.263,14.5-.873.4-.1.419-1.092-.026-1.076-4.847.175-9.625.935-14.494.945-.385,0-.368.993.024,1Z" fill="#be9a6e"/></g><g id="change4_127"><path d="M333.536,183.026c6.91,1.636,14.854,3.859,21.741,1.137.175-.07.16-.56-.058-.543a73.7,73.7,0,0,1-21.634-1.532c-.318-.067-.359.865-.049.938Z" fill="#be9a6e"/></g><g id="change4_128"><path d="M328.462,188.062c8.283.992,15.2,4.359,22.43,8.274.351.191.4-.65.192-.82-6.342-5.141-14.656-7.449-22.642-8.264-.3-.031-.3.771.02.81Z" fill="#be9a6e"/></g><g id="change4_129"><path d="M339.152,196.864a57.008,57.008,0,0,0,10.483-.452c.268-.046.267-.656-.016-.657-3.494,0-6.986.368-10.484.412-.28,0-.267.693.017.7Z" fill="#be9a6e"/></g><g id="change4_130"><path d="M333.1,194.3c5.2,2.574,12.488,4.764,15.433,10.137.174.317.393-.155.349-.337-.605-2.516-2.252-4.018-4.432-5.333-3.526-2.128-7.506-3.628-11.23-5.37-.357-.167-.431.749-.12.9Z" fill="#be9a6e"/></g><g id="change4_131"><path d="M330.915,207.186c6.071.6,16.181,2.424,20.6-3.107.183-.229.108-1.023-.291-.728-5.646,4.162-13.754,3.287-20.336,2.759-.406-.033-.4,1.033.027,1.076Z" fill="#be9a6e"/></g><g id="change4_132"><path d="M352.488,117.11q7.565-3.417,15.187-6.72c1.4-.606,3.228-2.133,2.868,1.04-.125,1.1-1.284,2.524-2.022,3.4-1.962,2.338-4.663,3.849-7.148,5.537-.155.106-.107.738.093.631,4.819-2.588,9.679-6.343,9.8-12.275,0-.052-.022-.215-.108-.181-6.326,2.494-12.587,5.054-18.769,7.892-.185.085-.118.767.1.671Z" fill="#be9a6e"/></g><g id="change4_133"><path d="M353.123,122.977c-2.824,1.165-5.938,1.186-8.757,2.4a16.511,16.511,0,0,0-6.1,4.468c-.076.09,0,.522.091.429a21.151,21.151,0,0,1,6.5-4.508c2.7-1.116,5.655-1.209,8.322-2.4.106-.047.073-.437-.056-.384Z" fill="#be9a6e"/></g><g id="change4_134"><path d="M345.354,128.76c6.151-.683,12.316-1.254,18.176-3.39,3.84-1.4,9.616-3.655,9.8-8.468.008-.2-.21-.766-.315-.288-1.2,5.449-8.79,7.646-13.407,8.966a115.3,115.3,0,0,1-14.258,2.913c-.085.013-.072.275.006.267Z" fill="#be9a6e"/></g><g id="change4_135"><path d="M346.356,136.891a116.384,116.384,0,0,0,15.673-4.859c3.868-1.532,7.725-3.73,8.745-8.071.046-.2-.167-1.029-.34-.558-1.73,4.723-5.693,6.781-10.09,8.543a123.069,123.069,0,0,1-14,4.576c-.119.032-.089.393.009.369Z" fill="#be9a6e"/></g><g id="change4_136"><path d="M351.065,144.147c6.031-1.242,15.922-4.895,16.949-11.959.019-.135-.166-.687-.28-.342-2.132,6.46-10.632,10.12-16.685,11.645-.213.054-.17.694.016.656Z" fill="#be9a6e"/></g><g id="change4_137"><path d="M354.069,149.9c3.433-.524,6.958-2.524,8.494-5.769.077-.163-.013-1.029-.273-.71-2.291,2.806-4.572,4.931-8.24,5.679-.266.054-.225.837.019.8Z" fill="#be9a6e"/></g><g id="change4_138"><path d="M356.2,153.97c1.455-1.458,2.952-2.883,4.321-4.423.146-.163.029-.965-.176-.783-1.54,1.369-2.958,2.875-4.412,4.336-.217.218-.053,1.19.267.87Z" fill="#be9a6e"/></g><g id="change4_139"><path d="M258.883,226.972c12.031,4.52,24.932,6.732,37.7,7.743,13.136,1.041,26.189.868,39.137,3.631.309.066.334-.887.045-.979-12.217-3.852-25.35-3.228-37.978-4.136-13.2-.948-26.025-3.686-38.887-6.673-.117-.027-.125.373-.016.414Z" fill="#be9a6e"/></g><g id="change4_140"><path d="M341.693,239.555c11.978,4.711,20.472,13.806,30.158,21.871,8.684,7.231,20.18,14.013,31.943,11.866.393-.071.389-1.041-.026-1.046-13.4-.137-23.945-5.878-34.167-14.175-8.761-7.111-17.021-15.232-27.843-19.091-.216-.077-.245.5-.065.575Z" fill="#be9a6e"/></g><g id="change4_141"><path d="M314.947,216.024c9.393,1.717,16.976,9.677,24.184,15.394,7.294,5.787,14.663,11.624,22.723,16.315a104.11,104.11,0,0,0,25.077,10.676,86.953,86.953,0,0,0,27.772,3.206c.378-.025.415-.9.059-.968-9.55-1.8-19.33-.769-28.8-3.437a92.248,92.248,0,0,1-24.373-11.367c-8.658-5.516-16.746-11.794-24.865-18.062-6.639-5.126-13.228-11.06-21.793-12.3-.171-.025-.179.508.014.543Z" fill="#be9a6e"/></g><g id="change4_142"><path d="M302.5,219.5c5.812,2.9,11.743,5.508,17.638,8.23,5.865,2.708,11.926,5.477,18.217,7.017.358.087.368-.71.1-.834-5.887-2.738-12.153-4.716-18.225-7-6.024-2.268-11.883-5.043-17.688-7.816-.138-.066-.168.345-.045.406Z" fill="#be9a6e"/></g><g id="change4_143"><path d="M366.023,254.323c6.476,3.048,12.98,6.839,19.969,8.556a60.179,60.179,0,0,0,20.246,1.107c.344-.037.32-.809-.02-.841-6.744-.638-13.458-.36-20.154-1.617-7.1-1.333-13.477-4.73-19.97-7.751-.211-.1-.259.457-.071.546Z" fill="#be9a6e"/></g><g id="change4_144"><path d="M412.435,264.091a14.991,14.991,0,0,1,2.312.292,7.79,7.79,0,0,1,1.9.509c.211.115.718.478.582.805-.086.2-.672.378-.9.476a2.688,2.688,0,0,0-1.209.829c-.161.2-.088.941.258.667.819-.651,3.384-1.2,2.5-2.838-.347-.641-1.27-.763-1.909-.885a19.486,19.486,0,0,0-3.545-.286c-.175,0-.166.42.011.431Z" fill="#be9a6e"/></g><g id="change4_145"><path d="M397.812,270.363q7.808.042,15.612.018-.081-.417-.161-.834l-1.757.873c-.254.053-.259.61.015.625a2.276,2.276,0,0,0,2.042-.729c.188-.176.193-.84-.161-.834q-7.8.129-15.6.337c-.226.006-.214.542.013.544Z" fill="#be9a6e"/></g><g id="change4_146"><path d="M400.6,269.942c4.424-.194,9.033-.061,13.411-.742.318-.049.312-.758-.019-.769-4.429-.139-8.99.563-13.407.916-.247.02-.232.606.015.6Z" fill="#be9a6e"/></g><g id="change4_147"><path d="M401.239,272.2a11.8,11.8,0,0,0,5.053-.117c.237-.08.19-.65-.072-.663-1.655-.08-3.325.275-5,.217-.236-.009-.22.535.014.563Z" fill="#be9a6e"/></g><g id="change4_148"><path d="M413.065,267.223l.622-.026c.118,0,.111-.272-.007-.277l-.623-.025c-.138-.006-.134.334.008.328Z" fill="#be9a6e"/></g><g id="change4_149"><path d="M191.415,160.459c1.693,1.5,3.335,3.119,5.14,4.477.143.107.174-.223.091-.3-1.614-1.566-3.446-2.939-5.173-4.379-.087-.073-.118.153-.058.205Z" fill="#be9a6e"/></g></g></svg>