<?xml version="1.0" encoding="UTF-8"?><svg xmlns="http://www.w3.org/2000/svg" xmlns:xlink="http://www.w3.org/1999/xlink" height="71.6" preserveAspectRatio="xMidYMid meet" version="1.0" viewBox="0.0 4.8 841.9 71.6" width="841.9" zoomAndPan="magnify"><g><g><g id="change1_14"><path d="M424.87,26.64c6.93-3.97,17.38-4.68,23.57,1.17c5.57,5.26,5.13,15.16-0.43,20.29 c-0.38,0.35,0.19,0.93,0.57,0.57c4.45-4.1,5.88-11.42,3.52-16.96c-2.57-6.04-8.99-8.74-15.22-8.94c-4.36-0.14-8.65,1-12.43,3.17 C424.01,26.2,424.42,26.9,424.87,26.64L424.87,26.64z" fill="#e60012"/></g></g><g><g id="change1_3"><path d="M428.46,29.47c2.5-1.05,5.1-1.88,7.84-1.71c2.6,0.16,5.25,0.9,7.45,2.32c2.35,1.52,4.19,3.85,4.55,6.68 c0.32,2.58-0.38,5.41-2.2,7.32c-0.36,0.38,0.21,0.95,0.57,0.57c2.93-3.06,3.34-8.28,1.04-11.81c-2.51-3.84-7.19-5.71-11.64-5.91 c-2.73-0.12-5.34,0.71-7.82,1.75C427.77,28.88,427.98,29.67,428.46,29.47L428.46,29.47z" fill="#e60012"/></g></g><g><g id="change1_18"><path d="M421.17,24.61c6.92-4.65,16.22-7.02,24.23-3.86c8.21,3.23,12.9,11.95,11.21,20.57 c-0.93,4.75-3.63,8.99-7.62,11.73c-0.43,0.29-0.02,1,0.41,0.7c7.22-4.97,10.28-14.64,7.16-22.86 c-3.32-8.74-12.43-13.1-21.41-12.25c-5.14,0.49-10.1,2.4-14.37,5.27C420.33,24.2,420.74,24.9,421.17,24.61L421.17,24.61z" fill="#e60012"/></g></g><g><g id="change1_29"><path d="M433.89,19.06c-1.38-5.94-7.95-9.91-13.82-9.29c-6.38,0.67-11.22,5.02-13.32,10.97 c-1.25,3.56-1.18,7.34-0.66,11.03c0.07,0.51,0.85,0.3,0.78-0.22c-0.53-3.82-0.52-7.73,0.95-11.36c1.39-3.42,3.72-6.37,7.04-8.07 c3.27-1.68,7.27-2.21,10.74-0.85c3.47,1.36,6.66,4.28,7.52,8C433.23,19.78,434.01,19.57,433.89,19.06L433.89,19.06z" fill="#e60012"/></g></g><g><g id="change1_9"><path d="M429.89,19.71c-1.29-2.22-3.44-3.98-5.81-4.92c-2.39-0.95-4.87-0.71-7.17,0.38 c-5.31,2.52-7.46,8.55-6.6,14.1c0.08,0.51,0.86,0.3,0.78-0.22c-0.79-5.12,1.18-10.62,5.97-13.06c2.16-1.1,4.54-1.35,6.8-0.43 c2.18,0.89,4.14,2.52,5.33,4.55C429.45,20.57,430.15,20.17,429.89,19.71L429.89,19.71z" fill="#e60012"/></g></g><g><g id="change1_8"><path d="M438.26,18.67c-2.12-7.62-8.81-12.89-16.69-13.38c-8.03-0.5-15.74,4.26-18.47,11.91 c-1.97,5.51-1.77,11.99,0.21,17.47c0.18,0.49,0.96,0.28,0.78-0.22c-3.08-8.55-1.84-19.7,6.05-25.21 c5.85-4.08,13.92-4.2,19.95-0.43c3.68,2.3,6.23,5.91,7.39,10.07C437.62,19.38,438.4,19.17,438.26,18.67L438.26,18.67z" fill="#e60012"/></g></g><g><g id="change1_20"><path d="M431.38,28.03c-0.5,6.19-4.56,12.84-10.33,15.4c-0.48,0.21-0.06,0.91,0.41,0.7 c6.04-2.68,10.21-9.65,10.73-16.1C432.23,27.51,431.42,27.51,431.38,28.03L431.38,28.03z" fill="#e60012"/></g></g><g><g id="change1_24"><path d="M435.94,27.85c-1.22,7.33-5.88,14.34-11.35,19.23c-0.39,0.35,0.18,0.92,0.57,0.57 c5.57-4.98,10.32-12.13,11.56-19.59C436.8,27.56,436.02,27.34,435.94,27.85L435.94,27.85z" fill="#e60012"/></g></g><g><g id="change1_15"><path d="M439.76,28.18c-1.73,7.25-5.25,14.49-10.25,20.04c-0.35,0.39,0.22,0.96,0.57,0.57 c5.1-5.65,8.7-13.01,10.46-20.4C440.67,27.89,439.88,27.67,439.76,28.18L439.76,28.18z" fill="#e60012"/></g></g><g><g id="change1_16"><path d="M431.28,31.28c-2.68-2.46-5.75-4.5-8.92-6.28c-3.18-1.79-6.51-3.34-9.98-4.46c-0.5-0.16-0.71,0.62-0.22,0.78 c3.41,1.1,6.67,2.62,9.79,4.38c3.11,1.75,6.12,3.74,8.76,6.16C431.1,32.21,431.67,31.63,431.28,31.28L431.28,31.28z" fill="#e60012"/></g></g><g><g id="change1_6"><path d="M429.66,34.34c-5.64-4.47-11.74-8.09-18.73-9.95c-0.5-0.13-0.72,0.65-0.22,0.78 c6.86,1.82,12.85,5.36,18.37,9.74C429.49,35.23,430.07,34.66,429.66,34.34L429.66,34.34z" fill="#e60012"/></g></g><g><g id="change1_30"><path d="M427.7,38.08c-5.19-3.69-10.82-7.27-16.89-9.31c-0.5-0.17-0.71,0.62-0.22,0.78c6,2.02,11.57,5.58,16.7,9.23 C427.71,39.08,428.12,38.38,427.7,38.08L427.7,38.08z" fill="#e60012"/></g></g><g><g id="change1_22"><path d="M402.28,19.04c-8.54-0.1-15.81,6.13-17.67,14.37c-0.88,3.9-0.64,8.2,0.89,11.91 c1.76,4.25,5.31,7.98,9.32,10.21c4.86,2.71,10.59,3.38,16.06,3.58c0.52,0.02,0.52-0.79,0-0.81c-4.56-0.17-9.21-0.67-13.46-2.42 c-4.22-1.73-7.99-5.03-10.25-9c-3.97-6.96-2.59-16.41,3.02-22.07c3.21-3.24,7.54-5.01,12.1-4.96 C402.8,19.86,402.8,19.05,402.28,19.04L402.28,19.04z" fill="#e60012"/></g></g><g><g id="change1_1"><path d="M401.54,24.04c-5.51-0.43-9.92,4.06-11.63,8.93c-2.12,6.06-0.1,12.55,4.96,16.46 c4.23,3.26,9.65,4.55,14.86,5.09c0.52,0.05,0.51-0.76,0-0.81c-7.46-0.78-16.52-3.57-19.18-11.47c-1.69-5.01-0.18-10.9,3.62-14.55 c1.98-1.9,4.59-3.05,7.36-2.84C402.06,24.89,402.06,24.08,401.54,24.04L401.54,24.04z" fill="#e60012"/></g></g><g><g id="change1_19"><path d="M402.12,28.24c-4.45,0.28-7.91,4.55-8.17,8.86c-0.29,4.87,3.3,8.85,7.69,10.35 c2.54,0.87,5.21,1.29,7.86,1.64c0.52,0.07,0.51-0.74,0-0.81c-5.11-0.67-11.01-1.57-13.69-6.56c-1.39-2.58-1.38-5.61,0-8.19 c1.27-2.38,3.55-4.31,6.32-4.49C402.64,29.02,402.64,28.21,402.12,28.24L402.12,28.24z" fill="#e60012"/></g></g><g><g id="change1_10"><path d="M410.49,28.81c-6.07,3.24-9.91,9.15-13.79,14.61c-0.3,0.43,0.4,0.83,0.7,0.41 c3.81-5.34,7.55-11.14,13.5-14.32C411.36,29.27,410.95,28.57,410.49,28.81L410.49,28.81z" fill="#e60012"/></g></g><g><g id="change1_5"><path d="M414.69,30.8c-3.26,2.01-6.47,4.23-9,7.14c-2.19,2.52-3.85,5.44-5.6,8.26c-0.28,0.44,0.42,0.85,0.7,0.41 c1.72-2.76,3.34-5.63,5.48-8.09c2.49-2.86,5.63-5.03,8.84-7.01C415.54,31.23,415.13,30.53,414.69,30.8L414.69,30.8z" fill="#e60012"/></g></g><g><g id="change1_7"><path d="M419.44,33.2c-6.74,2.52-11.83,8.2-15.13,14.45c-0.24,0.46,0.46,0.87,0.7,0.41 c3.19-6.05,8.1-11.63,14.64-14.07C420.14,33.8,419.93,33.02,419.44,33.2L419.44,33.2z" fill="#e60012"/></g></g><g><g id="change1_12"><path d="M416.96,34.46c-1.46,4.8-2.49,9.76-2.45,14.8c0.04,4.9,1.14,9.66,3.09,14.14c0.21,0.48,0.91,0.06,0.7-0.41 c-1.95-4.48-3-9.26-2.98-14.16c0.02-4.82,1.02-9.56,2.43-14.16C417.89,34.18,417.11,33.96,416.96,34.46L416.96,34.46z" fill="#e60012"/></g></g><g><g id="change1_17"><path d="M422.17,35.17c-0.79,2.35-1.39,4.76-1.88,7.19c-0.43,2.17-0.91,4.39-1.03,6.61 c-0.21,3.99,0.45,8.16,1.74,11.93c0.17,0.49,0.95,0.28,0.78-0.22c-1.27-3.71-1.92-7.79-1.71-11.71c0.12-2.22,0.6-4.44,1.04-6.62 c0.48-2.36,1.07-4.68,1.83-6.97C423.11,34.89,422.33,34.68,422.17,35.17L422.17,35.17z" fill="#e60012"/></g></g><g><g id="change1_23"><path d="M411.3,38.68c-2.64,8.6-2.22,18.93,1.68,27.1c0.22,0.47,0.92,0.06,0.7-0.41c-3.81-7.96-4.17-18.09-1.6-26.47 C412.23,38.39,411.45,38.18,411.3,38.68L411.3,38.68z" fill="#e60012"/></g></g><g><g id="change1_11"><path d="M420.86,43.89c0.33,1.25,1.32,2.42,2.32,3.2c1.2,0.93,2.97,1.23,4.42,1.55c3.59,0.77,7.35,0.98,11,0.59 c0.51-0.05,0.52-0.87,0-0.81c-3.3,0.35-6.68,0.21-9.94-0.4c-2.7-0.5-6.21-1.23-7.02-4.34C421.51,43.17,420.73,43.38,420.86,43.89 L420.86,43.89z" fill="#e60012"/></g></g><g><g id="change1_13"><path d="M419.68,50.38c6.33,3.32,14.3,4.33,21.26,2.67c0.51-0.12,0.29-0.9-0.22-0.78c-6.74,1.6-14.5,0.62-20.63-2.59 C419.63,49.44,419.22,50.14,419.68,50.38L419.68,50.38z" fill="#e60012"/></g></g><g><g id="change1_4"><path d="M419.91,55.46c6.44,3.26,14.57,4.18,21.58,2.45c0.51-0.12,0.29-0.91-0.22-0.78 c-6.79,1.68-14.72,0.79-20.96-2.37C419.86,54.53,419.44,55.22,419.91,55.46L419.91,55.46z" fill="#e60012"/></g></g><g><g id="change1_27"><path d="M433.57,44.46c4.88,2.64,8.73,7.83,7.48,13.59c-1.13,5.22-6.56,8.81-11.74,6.76 c-0.48-0.19-0.7,0.59-0.22,0.78c5.45,2.15,11.31-1.55,12.66-7.01c1.54-6.21-2.45-11.94-7.78-14.81 C433.52,43.51,433.11,44.21,433.57,44.46L433.57,44.46z" fill="#e60012"/></g></g><g><g id="change1_2"><path d="M435.91,40.65c2.77,2.19,5.58,4.53,7.34,7.65c1.8,3.21,2.7,7.28,2.03,10.91c-0.73,4.01-3.28,7.48-6.98,9.22 c-4.26,2-9.1,1.27-13.47,0.05c-0.5-0.14-0.72,0.64-0.22,0.78c6.69,1.88,14.43,1.98,18.99-4.15c3.8-5.11,3.3-12.32,0.12-17.62 c-1.8-3-4.53-5.28-7.24-7.42C436.07,39.76,435.5,40.33,435.91,40.65L435.91,40.65z" fill="#e60012"/></g></g><g><g id="change1_28"><path d="M437.79,36.66c7.32,4.34,11.67,12.89,11.2,21.33c-0.24,4.3-1.91,8.44-5.08,11.4 c-2.99,2.79-7.01,4.15-11.02,4.52c-4.4,0.4-8.96-0.28-13.01-2.08c-0.47-0.21-0.88,0.49-0.41,0.7c7.28,3.24,17.24,3.5,23.8-1.54 c7.5-5.77,7.99-16.49,4.27-24.57c-1.94-4.22-5.34-8.07-9.35-10.45C437.75,35.7,437.34,36.4,437.79,36.66L437.79,36.66z" fill="#e60012"/></g></g><g><g id="change1_25"><path d="M400.62,57.52c-0.31,3.09,0.77,6.13,3.39,7.91c2.18,1.48,4.88,1.78,7.43,1.35 c5.26-0.89,10.7-4.64,13.15-9.42c0.24-0.46-0.46-0.87-0.7-0.41c-2.2,4.31-6.86,7.62-11.49,8.8c-2.39,0.61-5.02,0.63-7.24-0.57 c-2.85-1.54-4.04-4.53-3.73-7.66C401.48,57.01,400.67,57.01,400.62,57.52L400.62,57.52z" fill="#e60012"/></g></g><g><g id="change1_21"><path d="M396.61,56.08c-0.8,3.55,0.01,7.23,2.34,10.05c2.4,2.91,6.13,4.34,9.84,4.53 c8.62,0.44,15.12-6.15,19.94-12.52c0.31-0.42-0.39-0.82-0.7-0.41c-4.37,5.78-10.22,11.92-17.97,12.13 c-3.65,0.1-7.53-1.05-10.07-3.78c-2.46-2.64-3.38-6.29-2.59-9.79C397.5,55.78,396.72,55.57,396.61,56.08L396.61,56.08z" fill="#e60012"/></g></g><g><g id="change1_26"><path d="M392.79,54.15c-2.97,7.16,1.41,15.2,7.97,18.57c7.08,3.64,16.32,1.92,22.59-2.6 c4.27-3.08,7.77-7.12,10.86-11.34c0.31-0.42-0.39-0.83-0.7-0.41c-4.81,6.56-10.75,12.89-18.94,14.83 c-7.44,1.77-15.5-0.28-19.75-7c-2.26-3.58-2.9-7.88-1.26-11.84C393.77,53.88,392.99,53.67,392.79,54.15L392.79,54.15z" fill="#e60012"/></g></g></g><path d="M456.77 42.54L841.89 42.54" fill="none" stroke="#e60012" stroke-miterlimit="10" stroke-width=".694"/><path d="M455.11 46.94L841.89 46.94" fill="none" stroke="#e60012" stroke-miterlimit="10" stroke-width=".694"/><path d="M451.78 51.35L841.89 51.35" fill="none" stroke="#e60012" stroke-miterlimit="10" stroke-width=".694"/><path d="M384.81 42.54L0 42.54" fill="none" stroke="#e60012" stroke-miterlimit="10" stroke-width=".694"/><path d="M386.47 46.94L0 46.94" fill="none" stroke="#e60012" stroke-miterlimit="10" stroke-width=".694"/><path d="M389.8 51.35L0 51.35" fill="none" stroke="#e60012" stroke-miterlimit="10" stroke-width=".694"/></svg>